<?xml version="1.0" encoding="UTF-8" standalone="no"?>
<svg
   xmlns:dc="http://purl.org/dc/elements/1.1/"
   xmlns:cc="http://creativecommons.org/ns#"
   xmlns:rdf="http://www.w3.org/1999/02/22-rdf-syntax-ns#"
   xmlns:svg="http://www.w3.org/2000/svg"
   xmlns="http://www.w3.org/2000/svg"
   xmlns:sodipodi="http://sodipodi.sourceforge.net/DTD/sodipodi-0.dtd"
   xmlns:inkscape="http://www.inkscape.org/namespaces/inkscape"
   height="32"
   viewBox="0 0 8.4666659 8.4666659"
   width="32"
   version="1.1"
   id="svg4"
   sodipodi:docname="icon_origin.svg"
   inkscape:version="0.92.4 5da689c313, 2019-01-14">
  <metadata
     id="metadata10">
    <rdf:RDF>
      <cc:Work
         rdf:about="">
        <dc:format>image/svg+xml</dc:format>
        <dc:type
           rdf:resource="http://purl.org/dc/dcmitype/StillImage" />
      </cc:Work>
    </rdf:RDF>
  </metadata>
  <defs
     id="defs8" />
  <sodipodi:namedview
     pagecolor="#ffffff"
     bordercolor="#666666"
     borderopacity="1"
     objecttolerance="10"
     gridtolerance="10"
     guidetolerance="10"
     inkscape:pageopacity="0"
     inkscape:pageshadow="2"
     inkscape:window-width="1920"
     inkscape:window-height="1025"
     id="namedview6"
     showgrid="false"
     inkscape:zoom="14.75"
     inkscape:cx="-10.073099"
     inkscape:cy="14.356231"
     inkscape:window-x="2560"
     inkscape:window-y="551"
     inkscape:window-maximized="1"
     inkscape:current-layer="svg4" />
  <path
     d="m7.0195836 290.12656q.9877777.98778.9877777 2.51883 0 1.53106-.9877777 2.51884-.9779.98777-2.5089554.98777-1.5310555 0-2.5188332-.98777-.9778999-.98778-.9778999-2.51884 0-1.53105.9877777-2.51883.9877777-.98778 2.5089554-.98778 1.5211777 0 2.5089554.98778zm-.7605889 2.51883q0-.50376-.069144-.9779-.059267-.48401-.2370667-1.01741-.1679222-.5334-.5432777-.85937-.3654777-.32596-.8988777-.32596-.5334 0-.9087555.32596-.3654778.32597-.5432777.85937-.1679223.5334-.2370667 1.01741-.059267.47414-.059267.9779 0 3.18065 1.7483666 3.18065 1.7483665 0 1.7483665-3.18065zm-.6025444.99766h-.2370666q0-.2667-.1580445-.43462-.1481666-.16793-.4148666-.16793h-.6914444q-.2667 0-.4247444.16793-.1481667.16792-.1481667.43462h-.2370666v-2.17311h.2370666q0 .2667.1481667.43462.1580444.16792.4247444.16792h.6914444q.2667 0 .4148666-.16792.1580445-.16792.1580445-.43462h.2370666z"
     id="path2"
     style="stroke:#c9c9c7;fill:#fffffb;fill-opacity:1;stroke-opacity:1;stroke-width:0.26458331;stroke-miterlimit:4;stroke-dasharray:none"
     transform="translate(0 -288.53334)" />
</svg>
