<?xml version="1.0" encoding="UTF-8" standalone="no"?>
<svg
   xmlns:dc="http://purl.org/dc/elements/1.1/"
   xmlns:cc="http://creativecommons.org/ns#"
   xmlns:rdf="http://www.w3.org/1999/02/22-rdf-syntax-ns#"
   xmlns:svg="http://www.w3.org/2000/svg"
   xmlns="http://www.w3.org/2000/svg"
   xmlns:sodipodi="http://sodipodi.sourceforge.net/DTD/sodipodi-0.dtd"
   xmlns:inkscape="http://www.inkscape.org/namespaces/inkscape"
   height="32"
   viewBox="0 0 8.4666659 8.4666659"
   width="32"
   version="1.1"
   id="svg4"
   sodipodi:docname="icon_transponder.svg"
   inkscape:version="0.92.4 5da689c313, 2019-01-14">
  <metadata
     id="metadata10">
    <rdf:RDF>
      <cc:Work
         rdf:about="">
        <dc:format>image/svg+xml</dc:format>
        <dc:type
           rdf:resource="http://purl.org/dc/dcmitype/StillImage" />
      </cc:Work>
    </rdf:RDF>
  </metadata>
  <defs
     id="defs8" />
  <sodipodi:namedview
     pagecolor="#ffffff"
     bordercolor="#666666"
     borderopacity="1"
     objecttolerance="10"
     gridtolerance="10"
     guidetolerance="10"
     inkscape:pageopacity="0"
     inkscape:pageshadow="2"
     inkscape:window-width="1920"
     inkscape:window-height="1025"
     id="namedview6"
     showgrid="false"
     inkscape:zoom="20.85965"
     inkscape:cx="-0.57299737"
     inkscape:cy="10.286881"
     inkscape:window-x="2560"
     inkscape:window-y="551"
     inkscape:window-maximized="1"
     inkscape:current-layer="svg4" />
  <text
     xml:space="preserve"
     style="font-style:normal;font-weight:normal;font-size:2.64583302px;line-height:6.61458254px;font-family:Sans;letter-spacing:0px;word-spacing:0px;fill:#000000;fill-opacity:1;stroke:none;stroke-width:0.26458332px;stroke-linecap:butt;stroke-linejoin:miter;stroke-opacity:1"
     x="-6.3858752"
     y="2.8700564"
     id="text814"><tspan
       sodipodi:role="line"
       id="tspan812"
       x="-6.3858752"
       y="6.8646441"
       style="stroke-width:0.26458332px" /></text>
  <g
     aria-label="ð›•"
     style="font-style:normal;font-weight:normal;font-size:2.64583302px;line-height:6.61458254px;font-family:Sans;letter-spacing:0px;word-spacing:0px;fill:#ffffff;fill-opacity:1;stroke:#c9c9c7;stroke-width:0.26458332px;stroke-linecap:butt;stroke-linejoin:miter;stroke-opacity:1"
     id="text818">
    <path
       d="m 6.5584774,1.4582189 q 0,0.9143999 -0.3386667,1.207911 Q 5.892433,2.9483521 4.9667442,2.9483521 v 2.9576887 q 0,0.1693333 0.011289,0.2709333 0.022578,0.1016 0.1016,0.1919111 0.090311,0.079022 0.2596445,0.079022 0.2257777,0 0.3725333,-0.2370667 0.1580444,-0.2483555 0.2031999,-0.496711 0.045156,-0.2483556 0.056445,-0.4854222 h 0.3273777 q 0,0.8466666 -0.4063999,1.3659554 -0.3951111,0.508 -1.2191999,0.508 -0.6660444,0 -1.0047111,-0.3838222 Q 3.3411443,6.3237296 3.3411443,5.6463963 V 2.8806188 h -0.4064 q -0.3725333,0 -0.5531555,0.1128889 Q 2.2122555,3.1063965 2.2009666,3.4563521 H 1.8735889 q 0.011289,-0.4854222 0.067733,-0.7902222 0.067733,-0.3048 0.2257777,-0.5644444 0.1580445,-0.2596444 0.4628444,-0.3725333 0.3160889,-0.1241778 0.8015111,-0.1241778 0.3612444,0 1.106311,0.033867 0.7450666,0.033867 1.106311,0.033867 0.5870222,0 0.5870222,-0.3273778 v -0.022578 h 0.3273778 z"
       style="font-size:11.28888798px;stroke-width:0.26458332px;stroke:#c9c9c7;stroke-opacity:1;fill:#ffffff;fill-opacity:1"
       id="path820" />
  </g>
</svg>
