<svg height="36" viewBox="0 0 9.5249991 9.5249991" width="36" xmlns="http://www.w3.org/2000/svg"><g fill="#5656ac" transform="translate(.595289 -292.001742)"><g style="stroke-width:.238125;stroke-linecap:square;stroke-linejoin:bevel;stroke-dasharray:.47625 .9525;stroke-dashoffset:9;fill:#5656ac"><path d="m2.5258154 293.02286h.8854749l.4242641-.42426h-.8854749z"/><path d="m3.4112903 293.02286c.2174739 0 .3925521.17508.3925521.39255l.4242641-.42426c0-.21747-.1750782-.39255-.3925521-.39255z"/><path d="m3.8038424 293.41541v.79499l.4242641-.42426v-.79499z"/><path d="m3.8038424 294.2104c0 .10873-.04377.20687-.1147233.27783l.4242641-.42427c.070954-.0709.1147233-.16909.1147233-.27782z"/><path d="m3.6891191 294.48823c-.070954.071-.1690918.11472-.2778288.11472l.4242641-.42426c.108737 0 .206875-.0438.2778288-.11473z"/><path d="m3.4112903 294.60295h-.8854749l.4242641-.42426h.8854749z"/><path d="m2.5258154 294.60295c-.2174739 0-.3925521-.17508-.3925521-.39255l.4242641-.42426c0 .21747.1750782.39255.3925521.39255z"/><path d="m2.1332633 294.2104v-.79499l.4242641-.42426v.79499z"/><path d="m2.1332633 293.41541c0-.10873.04377-.20687.1147233-.27783l.424264-.42426c-.070954.0709-.1147232.16909-.1147232.27783z"/><path d="m2.2479866 293.13758c.070954-.071.1690918-.11472.2778288-.11472l.4242641-.42426c-.108737 0-.2068751.0438-.2778289.11472z"/></g><path d="m2.5258154 293.02286h.8854749c.2174739 0 .3925521.17508.3925521.39255v.79499c0 .21747-.1750782.39255-.3925521.39255h-.8854749c-.2174739 0-.3925521-.17508-.3925521-.39255v-.79499c0-.21747.1750782-.39255.3925521-.39255z" fill="#7d7dfb"/></g><g fill="#5681ac" transform="translate(2.667585 -292.001742)"><g style="stroke-width:.238125;stroke-linecap:square;stroke-linejoin:bevel;stroke-dasharray:.47625 .9525;stroke-dashoffset:9;fill:#5681ac"><path d="m2.5258154 293.02286h.8854749l.4242641-.42426h-.8854749z"/><path d="m3.4112903 293.02286c.2174739 0 .3925521.17508.3925521.39255l.4242641-.42426c0-.21747-.1750782-.39255-.3925521-.39255z"/><path d="m3.8038424 293.41541v.79499l.4242641-.42426v-.79499z"/><path d="m3.8038424 294.2104c0 .10873-.04377.20687-.1147233.27783l.4242641-.42427c.070954-.0709.1147233-.16909.1147233-.27782z"/><path d="m3.6891191 294.48823c-.070954.071-.1690918.11472-.2778288.11472l.4242641-.42426c.108737 0 .206875-.0438.2778288-.11473z"/><path d="m3.4112903 294.60295h-.8854749l.4242641-.42426h.8854749z"/><path d="m2.5258154 294.60295c-.2174739 0-.3925521-.17508-.3925521-.39255l.4242641-.42426c0 .21747.1750782.39255.3925521.39255z"/><path d="m2.1332633 294.2104v-.79499l.4242641-.42426v.79499z"/><path d="m2.1332633 293.41541c0-.10873.04377-.20687.1147233-.27783l.424264-.42426c-.070954.0709-.1147232.16909-.1147232.27783z"/><path d="m2.2479866 293.13758c.070954-.071.1690918-.11472.2778288-.11472l.4242641-.42426c-.108737 0-.2068751.0438-.2778289.11472z"/></g><path d="m2.5258154 293.02286h.8854749c.2174739 0 .3925521.17508.3925521.39255v.79499c0 .21747-.1750782.39255-.3925521.39255h-.8854749c-.2174739 0-.3925521-.17508-.3925521-.39255v-.79499c0-.21747.1750782-.39255.3925521-.39255z" fill="#7fbefd"/></g><g fill="#56acac" transform="translate(4.782524 -291.986661)"><g style="stroke-width:.238125;stroke-linecap:square;stroke-linejoin:bevel;stroke-dasharray:.47625 .9525;stroke-dashoffset:9;fill:#56acac"><path d="m2.5258154 293.02286h.8854749l.4242641-.42426h-.8854749z"/><path d="m3.4112903 293.02286c.2174739 0 .3925521.17508.3925521.39255l.4242641-.42426c0-.21747-.1750782-.39255-.3925521-.39255z"/><path d="m3.8038424 293.41541v.79499l.4242641-.42426v-.79499z"/><path d="m3.8038424 294.2104c0 .10873-.04377.20687-.1147233.27783l.4242641-.42427c.070954-.0709.1147233-.16909.1147233-.27782z"/><path d="m3.6891191 294.48823c-.070954.071-.1690918.11472-.2778288.11472l.4242641-.42426c.108737 0 .206875-.0438.2778288-.11473z"/><path d="m3.4112903 294.60295h-.8854749l.4242641-.42426h.8854749z"/><path d="m2.5258154 294.60295c-.2174739 0-.3925521-.17508-.3925521-.39255l.4242641-.42426c0 .21747.1750782.39255.3925521.39255z"/><path d="m2.1332633 294.2104v-.79499l.4242641-.42426v.79499z"/><path d="m2.1332633 293.41541c0-.10873.04377-.20687.1147233-.27783l.424264-.42426c-.070954.0709-.1147232.16909-.1147232.27783z"/><path d="m2.2479866 293.13758c.070954-.071.1690918-.11472.2778288-.11472l.4242641-.42426c-.108737 0-.2068751.0438-.2778289.11472z"/></g><path d="m2.5258154 293.02286h.8854749c.2174739 0 .3925521.17508.3925521.39255v.79499c0 .21747-.1750782.39255-.3925521.39255h-.8854749c-.2174739 0-.3925521-.17508-.3925521-.39255v-.79499c0-.21747.1750782-.39255.3925521-.39255z" fill="#7ffefe"/></g><g fill="#56ac81" transform="translate(4.781609 -289.863089)"><g style="stroke-width:.238125;stroke-linecap:square;stroke-linejoin:bevel;stroke-dasharray:.47625 .9525;stroke-dashoffset:9;fill:#56ac81"><path d="m2.5258154 293.02286h.8854749l.4242641-.42426h-.8854749z"/><path d="m3.4112903 293.02286c.2174739 0 .3925521.17508.3925521.39255l.4242641-.42426c0-.21747-.1750782-.39255-.3925521-.39255z"/><path d="m3.8038424 293.41541v.79499l.4242641-.42426v-.79499z"/><path d="m3.8038424 294.2104c0 .10873-.04377.20687-.1147233.27783l.4242641-.42427c.070954-.0709.1147233-.16909.1147233-.27782z"/><path d="m3.6891191 294.48823c-.070954.071-.1690918.11472-.2778288.11472l.4242641-.42426c.108737 0 .206875-.0438.2778288-.11473z"/><path d="m3.4112903 294.60295h-.8854749l.4242641-.42426h.8854749z"/><path d="m2.5258154 294.60295c-.2174739 0-.3925521-.17508-.3925521-.39255l.4242641-.42426c0 .21747.1750782.39255.3925521.39255z"/><path d="m2.1332633 294.2104v-.79499l.4242641-.42426v.79499z"/><path d="m2.1332633 293.41541c0-.10873.04377-.20687.1147233-.27783l.424264-.42426c-.070954.0709-.1147232.16909-.1147232.27783z"/><path d="m2.2479866 293.13758c.070954-.071.1690918-.11472.2778288-.11472l.4242641-.42426c-.108737 0-.2068751.0438-.2778289.11472z"/></g><path d="m2.5258154 293.02286h.8854749c.2174739 0 .3925521.17508.3925521.39255v.79499c0 .21747-.1750782.39255-.3925521.39255h-.8854749c-.2174739 0-.3925521-.17508-.3925521-.39255v-.79499c0-.21747.1750782-.39255.3925521-.39255z" fill="#7efcbe"/></g><g fill="#56ac56" transform="translate(4.791978 -287.725891)"><g style="stroke-width:.238125;stroke-linecap:square;stroke-linejoin:bevel;stroke-dasharray:.47625 .9525;stroke-dashoffset:9;fill:#56ac56"><path d="m2.5258154 293.02286h.8854749l.4242641-.42426h-.8854749z"/><path d="m3.4112903 293.02286c.2174739 0 .3925521.17508.3925521.39255l.4242641-.42426c0-.21747-.1750782-.39255-.3925521-.39255z"/><path d="m3.8038424 293.41541v.79499l.4242641-.42426v-.79499z"/><path d="m3.8038424 294.2104c0 .10873-.04377.20687-.1147233.27783l.4242641-.42427c.070954-.0709.1147233-.16909.1147233-.27782z"/><path d="m3.6891191 294.48823c-.070954.071-.1690918.11472-.2778288.11472l.4242641-.42426c.108737 0 .206875-.0438.2778288-.11473z"/><path d="m3.4112903 294.60295h-.8854749l.4242641-.42426h.8854749z"/><path d="m2.5258154 294.60295c-.2174739 0-.3925521-.17508-.3925521-.39255l.4242641-.42426c0 .21747.1750782.39255.3925521.39255z"/><path d="m2.1332633 294.2104v-.79499l.4242641-.42426v.79499z"/><path d="m2.1332633 293.41541c0-.10873.04377-.20687.1147233-.27783l.424264-.42426c-.070954.0709-.1147232.16909-.1147232.27783z"/><path d="m2.2479866 293.13758c.070954-.071.1690918-.11472.2778288-.11472l.4242641-.42426c-.108737 0-.2068751.0438-.2778289.11472z"/></g><path d="m2.5258154 293.02286h.8854749c.2174739 0 .3925521.17508.3925521.39255v.79499c0 .21747-.1750782.39255-.3925521.39255h-.8854749c-.2174739 0-.3925521-.17508-.3925521-.39255v-.79499c0-.21747.1750782-.39255.3925521-.39255z" fill="#7efc7e"/></g><g fill="#818181" transform="translate(1.749163 -288.961667)"><g style="stroke-width:.238125;stroke-linecap:square;stroke-linejoin:bevel;stroke-dasharray:.47625 .9525;stroke-dashoffset:9;fill:#818181"><path d="m2.5258154 293.02286h.8854749l.4242641-.42426h-.8854749z"/><path d="m3.4112903 293.02286c.2174739 0 .3925521.17508.3925521.39255l.4242641-.42426c0-.21747-.1750782-.39255-.3925521-.39255z"/><path d="m3.8038424 293.41541v.79499l.4242641-.42426v-.79499z"/><path d="m3.8038424 294.2104c0 .10873-.04377.20687-.1147233.27783l.4242641-.42427c.070954-.0709.1147233-.16909.1147233-.27782z"/><path d="m3.6891191 294.48823c-.070954.071-.1690918.11472-.2778288.11472l.4242641-.42426c.108737 0 .206875-.0438.2778288-.11473z"/><path d="m3.4112903 294.60295h-.8854749l.4242641-.42426h.8854749z"/><path d="m2.5258154 294.60295c-.2174739 0-.3925521-.17508-.3925521-.39255l.4242641-.42426c0 .21747.1750782.39255.3925521.39255z"/><path d="m2.1332633 294.2104v-.79499l.4242641-.42426v.79499z"/><path d="m2.1332633 293.41541c0-.10873.04377-.20687.1147233-.27783l.424264-.42426c-.070954.0709-.1147232.16909-.1147232.27783z"/><path d="m2.2479866 293.13758c.070954-.071.1690918-.11472.2778288-.11472l.4242641-.42426c-.108737 0-.2068751.0438-.2778289.11472z"/></g><path d="m2.5258154 293.02286h.8854749c.2174739 0 .3925521.17508.3925521.39255v.79499c0 .21747-.1750782.39255-.3925521.39255h-.8854749c-.2174739 0-.3925521-.17508-.3925521-.39255v-.79499c0-.21747.1750782-.39255.3925521-.39255z" fill="#bcbcbc"/></g><g fill="#815681" transform="translate(-.336854 -288.962276)"><g style="stroke-width:.238125;stroke-linecap:square;stroke-linejoin:bevel;stroke-dasharray:.47625 .9525;stroke-dashoffset:9;fill:#815681"><path d="m2.5258154 293.02286h.8854749l.4242641-.42426h-.8854749z"/><path d="m3.4112903 293.02286c.2174739 0 .3925521.17508.3925521.39255l.4242641-.42426c0-.21747-.1750782-.39255-.3925521-.39255z"/><path d="m3.8038424 293.41541v.79499l.4242641-.42426v-.79499z"/><path d="m3.8038424 294.2104c0 .10873-.04377.20687-.1147233.27783l.4242641-.42427c.070954-.0709.1147233-.16909.1147233-.27782z"/><path d="m3.6891191 294.48823c-.070954.071-.1690918.11472-.2778288.11472l.4242641-.42426c.108737 0 .206875-.0438.2778288-.11473z"/><path d="m3.4112903 294.60295h-.8854749l.4242641-.42426h.8854749z"/><path d="m2.5258154 294.60295c-.2174739 0-.3925521-.17508-.3925521-.39255l.4242641-.42426c0 .21747.1750782.39255.3925521.39255z"/><path d="m2.1332633 294.2104v-.79499l.4242641-.42426v.79499z"/><path d="m2.1332633 293.41541c0-.10873.04377-.20687.1147233-.27783l.424264-.42426c-.070954.0709-.1147232.16909-.1147232.27783z"/><path d="m2.2479866 293.13758c.070954-.071.1690918-.11472.2778288-.11472l.4242641-.42426c-.108737 0-.2068751.0438-.2778289.11472z"/></g><path d="m2.5258154 293.02286h.8854749c.2174739 0 .3925521.17508.3925521.39255v.79499c0 .21747-.1750782.39255-.3925521.39255h-.8854749c-.2174739 0-.3925521-.17508-.3925521-.39255v-.79499c0-.21747.1750782-.39255.3925521-.39255z" fill="#bc7dbc"/></g><g fill="#8156ac" transform="translate(-.336822 -291.100321)"><g style="stroke-width:.238125;stroke-linecap:square;stroke-linejoin:bevel;stroke-dasharray:.47625 .9525;stroke-dashoffset:9;fill:#8156ac"><path d="m2.5258154 293.02286h.8854749l.4242641-.42426h-.8854749z"/><path d="m3.4112903 293.02286c.2174739 0 .3925521.17508.3925521.39255l.4242641-.42426c0-.21747-.1750782-.39255-.3925521-.39255z"/><path d="m3.8038424 293.41541v.79499l.4242641-.42426v-.79499z"/><path d="m3.8038424 294.2104c0 .10873-.04377.20687-.1147233.27783l.4242641-.42427c.070954-.0709.1147233-.16909.1147233-.27782z"/><path d="m3.6891191 294.48823c-.070954.071-.1690918.11472-.2778288.11472l.4242641-.42426c.108737 0 .206875-.0438.2778288-.11473z"/><path d="m3.4112903 294.60295h-.8854749l.4242641-.42426h.8854749z"/><path d="m2.5258154 294.60295c-.2174739 0-.3925521-.17508-.3925521-.39255l.4242641-.42426c0 .21747.1750782.39255.3925521.39255z"/><path d="m2.1332633 294.2104v-.79499l.4242641-.42426v.79499z"/><path d="m2.1332633 293.41541c0-.10873.04377-.20687.1147233-.27783l.424264-.42426c-.070954.0709-.1147232.16909-.1147232.27783z"/><path d="m2.2479866 293.13758c.070954-.071.1690918-.11472.2778288-.11472l.4242641-.42426c-.108737 0-.2068751.0438-.2778289.11472z"/></g><path d="m2.5258154 293.02286h.8854749c.2174739 0 .3925521.17508.3925521.39255v.79499c0 .21747-.1750782.39255-.3925521.39255h-.8854749c-.2174739 0-.3925521-.17508-.3925521-.39255v-.79499c0-.21747.1750782-.39255.3925521-.39255z" fill="#be7ffd"/></g><g fill="#8181ac" transform="translate(1.735475 -291.100321)"><g style="stroke-width:.238125;stroke-linecap:square;stroke-linejoin:bevel;stroke-dasharray:.47625 .9525;stroke-dashoffset:9;fill:#8181ac"><path d="m2.5258154 293.02286h.8854749l.4242641-.42426h-.8854749z"/><path d="m3.4112903 293.02286c.2174739 0 .3925521.17508.3925521.39255l.4242641-.42426c0-.21747-.1750782-.39255-.3925521-.39255z"/><path d="m3.8038424 293.41541v.79499l.4242641-.42426v-.79499z"/><path d="m3.8038424 294.2104c0 .10873-.04377.20687-.1147233.27783l.4242641-.42427c.070954-.0709.1147233-.16909.1147233-.27782z"/><path d="m3.6891191 294.48823c-.070954.071-.1690918.11472-.2778288.11472l.4242641-.42426c.108737 0 .206875-.0438.2778288-.11473z"/><path d="m3.4112903 294.60295h-.8854749l.4242641-.42426h.8854749z"/><path d="m2.5258154 294.60295c-.2174739 0-.3925521-.17508-.3925521-.39255l.4242641-.42426c0 .21747.1750782.39255.3925521.39255z"/><path d="m2.1332633 294.2104v-.79499l.4242641-.42426v.79499z"/><path d="m2.1332633 293.41541c0-.10873.04377-.20687.1147233-.27783l.424264-.42426c-.070954.0709-.1147232.16909-.1147232.27783z"/><path d="m2.2479866 293.13758c.070954-.071.1690918-.11472.2778288-.11472l.4242641-.42426c-.108737 0-.2068751.0438-.2778289.11472z"/></g><path d="m2.5258154 293.02286h.8854749c.2174739 0 .3925521.17508.3925521.39255v.79499c0 .21747-.1750782.39255-.3925521.39255h-.8854749c-.2174739 0-.3925521-.17508-.3925521-.39255v-.79499c0-.21747.1750782-.39255.3925521-.39255z" fill="#bebefd"/></g><g fill="#81acac" transform="translate(3.850414 -291.085239)"><g style="stroke-width:.238125;stroke-linecap:square;stroke-linejoin:bevel;stroke-dasharray:.47625 .9525;stroke-dashoffset:9;fill:#81acac"><path d="m2.5258154 293.02286h.8854749l.4242641-.42426h-.8854749z"/><path d="m3.4112903 293.02286c.2174739 0 .3925521.17508.3925521.39255l.4242641-.42426c0-.21747-.1750782-.39255-.3925521-.39255z"/><path d="m3.8038424 293.41541v.79499l.4242641-.42426v-.79499z"/><path d="m3.8038424 294.2104c0 .10873-.04377.20687-.1147233.27783l.4242641-.42427c.070954-.0709.1147233-.16909.1147233-.27782z"/><path d="m3.6891191 294.48823c-.070954.071-.1690918.11472-.2778288.11472l.4242641-.42426c.108737 0 .206875-.0438.2778288-.11473z"/><path d="m3.4112903 294.60295h-.8854749l.4242641-.42426h.8854749z"/><path d="m2.5258154 294.60295c-.2174739 0-.3925521-.17508-.3925521-.39255l.4242641-.42426c0 .21747.1750782.39255.3925521.39255z"/><path d="m2.1332633 294.2104v-.79499l.4242641-.42426v.79499z"/><path d="m2.1332633 293.41541c0-.10873.04377-.20687.1147233-.27783l.424264-.42426c-.070954.0709-.1147232.16909-.1147232.27783z"/><path d="m2.2479866 293.13758c.070954-.071.1690918-.11472.2778288-.11472l.4242641-.42426c-.108737 0-.2068751.0438-.2778289.11472z"/></g><path d="m2.5258154 293.02286h.8854749c.2174739 0 .3925521.17508.3925521.39255v.79499c0 .21747-.1750782.39255-.3925521.39255h-.8854749c-.2174739 0-.3925521-.17508-.3925521-.39255v-.79499c0-.21747.1750782-.39255.3925521-.39255z" fill="#befdfd"/></g><g fill="#81ac81" transform="translate(3.849499 -288.961667)"><g style="stroke-width:.238125;stroke-linecap:square;stroke-linejoin:bevel;stroke-dasharray:.47625 .9525;stroke-dashoffset:9;fill:#81ac81"><path d="m2.5258154 293.02286h.8854749l.4242641-.42426h-.8854749z"/><path d="m3.4112903 293.02286c.2174739 0 .3925521.17508.3925521.39255l.4242641-.42426c0-.21747-.1750782-.39255-.3925521-.39255z"/><path d="m3.8038424 293.41541v.79499l.4242641-.42426v-.79499z"/><path d="m3.8038424 294.2104c0 .10873-.04377.20687-.1147233.27783l.4242641-.42427c.070954-.0709.1147233-.16909.1147233-.27782z"/><path d="m3.6891191 294.48823c-.070954.071-.1690918.11472-.2778288.11472l.4242641-.42426c.108737 0 .206875-.0438.2778288-.11473z"/><path d="m3.4112903 294.60295h-.8854749l.4242641-.42426h.8854749z"/><path d="m2.5258154 294.60295c-.2174739 0-.3925521-.17508-.3925521-.39255l.4242641-.42426c0 .21747.1750782.39255.3925521.39255z"/><path d="m2.1332633 294.2104v-.79499l.4242641-.42426v.79499z"/><path d="m2.1332633 293.41541c0-.10873.04377-.20687.1147233-.27783l.424264-.42426c-.070954.0709-.1147232.16909-.1147232.27783z"/><path d="m2.2479866 293.13758c.070954-.071.1690918-.11472.2778288-.11472l.4242641-.42426c-.108737 0-.2068751.0438-.2778289.11472z"/></g><path d="m2.5258154 293.02286h.8854749c.2174739 0 .3925521.17508.3925521.39255v.79499c0 .21747-.1750782.39255-.3925521.39255h-.8854749c-.2174739 0-.3925521-.17508-.3925521-.39255v-.79499c0-.21747.1750782-.39255.3925521-.39255z" fill="#bbf8bb"/></g><g fill="#815656" transform="translate(-.336854 -286.824469)"><g style="stroke-width:.238125;stroke-linecap:square;stroke-linejoin:bevel;stroke-dasharray:.47625 .9525;stroke-dashoffset:9;fill:#815656"><path d="m2.5258154 293.02286h.8854749l.4242641-.42426h-.8854749z"/><path d="m3.4112903 293.02286c.2174739 0 .3925521.17508.3925521.39255l.4242641-.42426c0-.21747-.1750782-.39255-.3925521-.39255z"/><path d="m3.8038424 293.41541v.79499l.4242641-.42426v-.79499z"/><path d="m3.8038424 294.2104c0 .10873-.04377.20687-.1147233.27783l.4242641-.42427c.070954-.0709.1147233-.16909.1147233-.27782z"/><path d="m3.6891191 294.48823c-.070954.071-.1690918.11472-.2778288.11472l.4242641-.42426c.108737 0 .206875-.0438.2778288-.11473z"/><path d="m3.4112903 294.60295h-.8854749l.4242641-.42426h.8854749z"/><path d="m2.5258154 294.60295c-.2174739 0-.3925521-.17508-.3925521-.39255l.4242641-.42426c0 .21747.1750782.39255.3925521.39255z"/><path d="m2.1332633 294.2104v-.79499l.4242641-.42426v.79499z"/><path d="m2.1332633 293.41541c0-.10873.04377-.20687.1147233-.27783l.424264-.42426c-.070954.0709-.1147232.16909-.1147232.27783z"/><path d="m2.2479866 293.13758c.070954-.071.1690918-.11472.2778288-.11472l.4242641-.42426c-.108737 0-.2068751.0438-.2778289.11472z"/></g><path d="m2.5258154 293.02286h.8854749c.2174739 0 .3925521.17508.3925521.39255v.79499c0 .21747-.1750782.39255-.3925521.39255h-.8854749c-.2174739 0-.3925521-.17508-.3925521-.39255v-.79499c0-.21747.1750782-.39255.3925521-.39255z" fill="#bd7e7e"/></g><g fill="#818156" transform="translate(1.738866 -286.824469)"><g style="stroke-width:.238125;stroke-linecap:square;stroke-linejoin:bevel;stroke-dasharray:.47625 .9525;stroke-dashoffset:9;fill:#818156"><path d="m2.5258154 293.02286h.8854749l.4242641-.42426h-.8854749z"/><path d="m3.4112903 293.02286c.2174739 0 .3925521.17508.3925521.39255l.4242641-.42426c0-.21747-.1750782-.39255-.3925521-.39255z"/><path d="m3.8038424 293.41541v.79499l.4242641-.42426v-.79499z"/><path d="m3.8038424 294.2104c0 .10873-.04377.20687-.1147233.27783l.4242641-.42427c.070954-.0709.1147233-.16909.1147233-.27782z"/><path d="m3.6891191 294.48823c-.070954.071-.1690918.11472-.2778288.11472l.4242641-.42426c.108737 0 .206875-.0438.2778288-.11473z"/><path d="m3.4112903 294.60295h-.8854749l.4242641-.42426h.8854749z"/><path d="m2.5258154 294.60295c-.2174739 0-.3925521-.17508-.3925521-.39255l.4242641-.42426c0 .21747.1750782.39255.3925521.39255z"/><path d="m2.1332633 294.2104v-.79499l.4242641-.42426v.79499z"/><path d="m2.1332633 293.41541c0-.10873.04377-.20687.1147233-.27783l.424264-.42426c-.070954.0709-.1147232.16909-.1147232.27783z"/><path d="m2.2479866 293.13758c.070954-.071.1690918-.11472.2778288-.11472l.4242641-.42426c-.108737 0-.2068751.0438-.2778289.11472z"/></g><path d="m2.5258154 293.02286h.8854749c.2174739 0 .3925521.17508.3925521.39255v.79499c0 .21747-.1750782.39255-.3925521.39255h-.8854749c-.2174739 0-.3925521-.17508-.3925521-.39255v-.79499c0-.21747.1750782-.39255.3925521-.39255z" fill="#bcbc7d"/></g><g fill="#81ac56" transform="translate(3.859868 -286.824469)"><g style="stroke-width:.238125;stroke-linecap:square;stroke-linejoin:bevel;stroke-dasharray:.47625 .9525;stroke-dashoffset:9;fill:#81ac56"><path d="m2.5258154 293.02286h.8854749l.4242641-.42426h-.8854749z"/><path d="m3.4112903 293.02286c.2174739 0 .3925521.17508.3925521.39255l.4242641-.42426c0-.21747-.1750782-.39255-.3925521-.39255z"/><path d="m3.8038424 293.41541v.79499l.4242641-.42426v-.79499z"/><path d="m3.8038424 294.2104c0 .10873-.04377.20687-.1147233.27783l.4242641-.42427c.070954-.0709.1147233-.16909.1147233-.27782z"/><path d="m3.6891191 294.48823c-.070954.071-.1690918.11472-.2778288.11472l.4242641-.42426c.108737 0 .206875-.0438.2778288-.11473z"/><path d="m3.4112903 294.60295h-.8854749l.4242641-.42426h.8854749z"/><path d="m2.5258154 294.60295c-.2174739 0-.3925521-.17508-.3925521-.39255l.4242641-.42426c0 .21747.1750782.39255.3925521.39255z"/><path d="m2.1332633 294.2104v-.79499l.4242641-.42426v.79499z"/><path d="m2.1332633 293.41541c0-.10873.04377-.20687.1147233-.27783l.424264-.42426c-.070954.0709-.1147232.16909-.1147232.27783z"/><path d="m2.2479866 293.13758c.070954-.071.1690918-.11472.2778288-.11472l.4242641-.42426c-.108737 0-.2068751.0438-.2778289.11472z"/></g><path d="m2.5258154 293.02286h.8854749c.2174739 0 .3925521.17508.3925521.39255v.79499c0 .21747-.1750782.39255-.3925521.39255h-.8854749c-.2174739 0-.3925521-.17508-.3925521-.39255v-.79499c0-.21747.1750782-.39255.3925521-.39255z" fill="#bcf97d"/></g><g fill="#ac8181" transform="translate(.79375 -288.004187)"><g style="stroke-width:.238125;stroke-linecap:square;stroke-linejoin:bevel;stroke-dasharray:.47625 .9525;stroke-dashoffset:9;fill:#ac8181"><path d="m2.5258154 293.02286h.8854749l.4242641-.42426h-.8854749z"/><path d="m3.4112903 293.02286c.2174739 0 .3925521.17508.3925521.39255l.4242641-.42426c0-.21747-.1750782-.39255-.3925521-.39255z"/><path d="m3.8038424 293.41541v.79499l.4242641-.42426v-.79499z"/><path d="m3.8038424 294.2104c0 .10873-.04377.20687-.1147233.27783l.4242641-.42427c.070954-.0709.1147233-.16909.1147233-.27782z"/><path d="m3.6891191 294.48823c-.070954.071-.1690918.11472-.2778288.11472l.4242641-.42426c.108737 0 .206875-.0438.2778288-.11473z"/><path d="m3.4112903 294.60295h-.8854749l.4242641-.42426h.8854749z"/><path d="m2.5258154 294.60295c-.2174739 0-.3925521-.17508-.3925521-.39255l.4242641-.42426c0 .21747.1750782.39255.3925521.39255z"/><path d="m2.1332633 294.2104v-.79499l.4242641-.42426v.79499z"/><path d="m2.1332633 293.41541c0-.10873.04377-.20687.1147233-.27783l.424264-.42426c-.070954.0709-.1147232.16909-.1147232.27783z"/><path d="m2.2479866 293.13758c.070954-.071.1690918-.11472.2778288-.11472l.4242641-.42426c-.108737 0-.2068751.0438-.2778289.11472z"/></g><path d="m2.5258154 293.02286h.8854749c.2174739 0 .3925521.17508.3925521.39255v.79499c0 .21747-.1750782.39255-.3925521.39255h-.8854749c-.2174739 0-.3925521-.17508-.3925521-.39255v-.79499c0-.21747.1750782-.39255.3925521-.39255z" fill="#ffc0c0"/></g><g fill="#b15984" transform="translate(-1.292266 -288.004794)"><g style="stroke-width:.238125;stroke-linecap:square;stroke-linejoin:bevel;stroke-dasharray:.47625 .9525;stroke-dashoffset:9;fill:#b15984"><path d="m2.5258154 293.02286h.8854749l.4242641-.42426h-.8854749z"/><path d="m3.4112903 293.02286c.2174739 0 .3925521.17508.3925521.39255l.4242641-.42426c0-.21747-.1750782-.39255-.3925521-.39255z"/><path d="m3.8038424 293.41541v.79499l.4242641-.42426v-.79499z"/><path d="m3.8038424 294.2104c0 .10873-.04377.20687-.1147233.27783l.4242641-.42427c.070954-.0709.1147233-.16909.1147233-.27782z"/><path d="m3.6891191 294.48823c-.070954.071-.1690918.11472-.2778288.11472l.4242641-.42426c.108737 0 .206875-.0438.2778288-.11473z"/><path d="m3.4112903 294.60295h-.8854749l.4242641-.42426h.8854749z"/><path d="m2.5258154 294.60295c-.2174739 0-.3925521-.17508-.3925521-.39255l.4242641-.42426c0 .21747.1750782.39255.3925521.39255z"/><path d="m2.1332633 294.2104v-.79499l.4242641-.42426v.79499z"/><path d="m2.1332633 293.41541c0-.10873.04377-.20687.1147233-.27783l.424264-.42426c-.070954.0709-.1147232.16909-.1147232.27783z"/><path d="m2.2479866 293.13758c.070954-.071.1690918-.11472.2778288-.11472l.4242641-.42426c-.108737 0-.2068751.0438-.2778289.11472z"/></g><path d="m2.5258154 293.02286h.8854749c.2174739 0 .3925521.17508.3925521.39255v.79499c0 .21747-.1750782.39255-.3925521.39255h-.8854749c-.2174739 0-.3925521-.17508-.3925521-.39255v-.79499c0-.21747.1750782-.39255.3925521-.39255z" fill="#ff85c3"/></g><g fill="#ac56ac" transform="translate(-1.292234 -290.142845)"><g style="stroke-width:.238125;stroke-linecap:square;stroke-linejoin:bevel;stroke-dasharray:.47625 .9525;stroke-dashoffset:9;fill:#ac56ac"><path d="m2.5258154 293.02286h.8854749l.4242641-.42426h-.8854749z"/><path d="m3.4112903 293.02286c.2174739 0 .3925521.17508.3925521.39255l.4242641-.42426c0-.21747-.1750782-.39255-.3925521-.39255z"/><path d="m3.8038424 293.41541v.79499l.4242641-.42426v-.79499z"/><path d="m3.8038424 294.2104c0 .10873-.04377.20687-.1147233.27783l.4242641-.42427c.070954-.0709.1147233-.16909.1147233-.27782z"/><path d="m3.6891191 294.48823c-.070954.071-.1690918.11472-.2778288.11472l.4242641-.42426c.108737 0 .206875-.0438.2778288-.11473z"/><path d="m3.4112903 294.60295h-.8854749l.4242641-.42426h.8854749z"/><path d="m2.5258154 294.60295c-.2174739 0-.3925521-.17508-.3925521-.39255l.4242641-.42426c0 .21747.1750782.39255.3925521.39255z"/><path d="m2.1332633 294.2104v-.79499l.4242641-.42426v.79499z"/><path d="m2.1332633 293.41541c0-.10873.04377-.20687.1147233-.27783l.424264-.42426c-.070954.0709-.1147232.16909-.1147232.27783z"/><path d="m2.2479866 293.13758c.070954-.071.1690918-.11472.2778288-.11472l.4242641-.42426c-.108737 0-.2068751.0438-.2778289.11472z"/></g><path d="m2.5258154 293.02286h.8854749c.2174739 0 .3925521.17508.3925521.39255v.79499c0 .21747-.1750782.39255-.3925521.39255h-.8854749c-.2174739 0-.3925521-.17508-.3925521-.39255v-.79499c0-.21747.1750782-.39255.3925521-.39255z" fill="#ff89ff"/></g><g fill="#ac81ac" transform="translate(.780062 -290.142845)"><g style="stroke-width:.238125;stroke-linecap:square;stroke-linejoin:bevel;stroke-dasharray:.47625 .9525;stroke-dashoffset:9;fill:#ac81ac"><path d="m2.5258154 293.02286h.8854749l.4242641-.42426h-.8854749z"/><path d="m3.4112903 293.02286c.2174739 0 .3925521.17508.3925521.39255l.4242641-.42426c0-.21747-.1750782-.39255-.3925521-.39255z"/><path d="m3.8038424 293.41541v.79499l.4242641-.42426v-.79499z"/><path d="m3.8038424 294.2104c0 .10873-.04377.20687-.1147233.27783l.4242641-.42427c.070954-.0709.1147233-.16909.1147233-.27782z"/><path d="m3.6891191 294.48823c-.070954.071-.1690918.11472-.2778288.11472l.4242641-.42426c.108737 0 .206875-.0438.2778288-.11473z"/><path d="m3.4112903 294.60295h-.8854749l.4242641-.42426h.8854749z"/><path d="m2.5258154 294.60295c-.2174739 0-.3925521-.17508-.3925521-.39255l.4242641-.42426c0 .21747.1750782.39255.3925521.39255z"/><path d="m2.1332633 294.2104v-.79499l.4242641-.42426v.79499z"/><path d="m2.1332633 293.41541c0-.10873.04377-.20687.1147233-.27783l.424264-.42426c-.070954.0709-.1147232.16909-.1147232.27783z"/><path d="m2.2479866 293.13758c.070954-.071.1690918-.11472.2778288-.11472l.4242641-.42426c-.108737 0-.2068751.0438-.2778289.11472z"/></g><path d="m2.5258154 293.02286h.8854749c.2174739 0 .3925521.17508.3925521.39255v.79499c0 .21747-.1750782.39255-.3925521.39255h-.8854749c-.2174739 0-.3925521-.17508-.3925521-.39255v-.79499c0-.21747.1750782-.39255.3925521-.39255z" fill="#ffc0ff"/></g><g fill="#acacac" transform="translate(2.895001 -290.127768)"><g style="stroke-width:.238125;stroke-linecap:square;stroke-linejoin:bevel;stroke-dasharray:.47625 .9525;stroke-dashoffset:9;fill:#acacac"><path d="m2.5258154 293.02286h.8854749l.4242641-.42426h-.8854749z"/><path d="m3.4112903 293.02286c.2174739 0 .3925521.17508.3925521.39255l.4242641-.42426c0-.21747-.1750782-.39255-.3925521-.39255z"/><path d="m3.8038424 293.41541v.79499l.4242641-.42426v-.79499z"/><path d="m3.8038424 294.2104c0 .10873-.04377.20687-.1147233.27783l.4242641-.42427c.070954-.0709.1147233-.16909.1147233-.27782z"/><path d="m3.6891191 294.48823c-.070954.071-.1690918.11472-.2778288.11472l.4242641-.42426c.108737 0 .206875-.0438.2778288-.11473z"/><path d="m3.4112903 294.60295h-.8854749l.4242641-.42426h.8854749z"/><path d="m2.5258154 294.60295c-.2174739 0-.3925521-.17508-.3925521-.39255l.4242641-.42426c0 .21747.1750782.39255.3925521.39255z"/><path d="m2.1332633 294.2104v-.79499l.4242641-.42426v.79499z"/><path d="m2.1332633 293.41541c0-.10873.04377-.20687.1147233-.27783l.424264-.42426c-.070954.0709-.1147232.16909-.1147232.27783z"/><path d="m2.2479866 293.13758c.070954-.071.1690918-.11472.2778288-.11472l.4242641-.42426c-.108737 0-.2068751.0438-.2778289.11472z"/></g><path d="m2.5258154 293.02286h.8854749c.2174739 0 .3925521.17508.3925521.39255v.79499c0 .21747-.1750782.39255-.3925521.39255h-.8854749c-.2174739 0-.3925521-.17508-.3925521-.39255v-.79499c0-.21747.1750782-.39255.3925521-.39255z" fill="#fafafa"/></g><g fill="#acac81" transform="translate(2.894086 -288.004187)"><g style="stroke-width:.238125;stroke-linecap:square;stroke-linejoin:bevel;stroke-dasharray:.47625 .9525;stroke-dashoffset:9;fill:#acac81"><path d="m2.5258154 293.02286h.8854749l.4242641-.42426h-.8854749z"/><path d="m3.4112903 293.02286c.2174739 0 .3925521.17508.3925521.39255l.4242641-.42426c0-.21747-.1750782-.39255-.3925521-.39255z"/><path d="m3.8038424 293.41541v.79499l.4242641-.42426v-.79499z"/><path d="m3.8038424 294.2104c0 .10873-.04377.20687-.1147233.27783l.4242641-.42427c.070954-.0709.1147233-.16909.1147233-.27782z"/><path d="m3.6891191 294.48823c-.070954.071-.1690918.11472-.2778288.11472l.4242641-.42426c.108737 0 .206875-.0438.2778288-.11473z"/><path d="m3.4112903 294.60295h-.8854749l.4242641-.42426h.8854749z"/><path d="m2.5258154 294.60295c-.2174739 0-.3925521-.17508-.3925521-.39255l.4242641-.42426c0 .21747.1750782.39255.3925521.39255z"/><path d="m2.1332633 294.2104v-.79499l.4242641-.42426v.79499z"/><path d="m2.1332633 293.41541c0-.10873.04377-.20687.1147233-.27783l.424264-.42426c-.070954.0709-.1147232.16909-.1147232.27783z"/><path d="m2.2479866 293.13758c.070954-.071.1690918-.11472.2778288-.11472l.4242641-.42426c-.108737 0-.2068751.0438-.2778289.11472z"/></g><path d="m2.5258154 293.02286h.8854749c.2174739 0 .3925521.17508.3925521.39255v.79499c0 .21747-.1750782.39255-.3925521.39255h-.8854749c-.2174739 0-.3925521-.17508-.3925521-.39255v-.79499c0-.21747.1750782-.39255.3925521-.39255z" fill="#ffffc1"/></g><g fill="#ac5656" transform="translate(-1.292266 -285.86699)"><g style="stroke-width:.238125;stroke-linecap:square;stroke-linejoin:bevel;stroke-dasharray:.47625 .9525;stroke-dashoffset:9;fill:#ac5656"><path d="m2.5258154 293.02286h.8854749l.4242641-.42426h-.8854749z"/><path d="m3.4112903 293.02286c.2174739 0 .3925521.17508.3925521.39255l.4242641-.42426c0-.21747-.1750782-.39255-.3925521-.39255z"/><path d="m3.8038424 293.41541v.79499l.4242641-.42426v-.79499z"/><path d="m3.8038424 294.2104c0 .10873-.04377.20687-.1147233.27783l.4242641-.42427c.070954-.0709.1147233-.16909.1147233-.27782z"/><path d="m3.6891191 294.48823c-.070954.071-.1690918.11472-.2778288.11472l.4242641-.42426c.108737 0 .206875-.0438.2778288-.11473z"/><path d="m3.4112903 294.60295h-.8854749l.4242641-.42426h.8854749z"/><path d="m2.5258154 294.60295c-.2174739 0-.3925521-.17508-.3925521-.39255l.4242641-.42426c0 .21747.1750782.39255.3925521.39255z"/><path d="m2.1332633 294.2104v-.79499l.4242641-.42426v.79499z"/><path d="m2.1332633 293.41541c0-.10873.04377-.20687.1147233-.27783l.424264-.42426c-.070954.0709-.1147232.16909-.1147232.27783z"/><path d="m2.2479866 293.13758c.070954-.071.1690918-.11472.2778288-.11472l.4242641-.42426c-.108737 0-.2068751.0438-.2778289.11472z"/></g><path d="m2.5258154 293.02286h.8854749c.2174739 0 .3925521.17508.3925521.39255v.79499c0 .21747-.1750782.39255-.3925521.39255h-.8854749c-.2174739 0-.3925521-.17508-.3925521-.39255v-.79499c0-.21747.1750782-.39255.3925521-.39255z" fill="#ff8181"/></g><g fill="#ac8156" transform="translate(.783453 -285.86699)"><g style="stroke-width:.238125;stroke-linecap:square;stroke-linejoin:bevel;stroke-dasharray:.47625 .9525;stroke-dashoffset:9;fill:#ac8156"><path d="m2.5258154 293.02286h.8854749l.4242641-.42426h-.8854749z"/><path d="m3.4112903 293.02286c.2174739 0 .3925521.17508.3925521.39255l.4242641-.42426c0-.21747-.1750782-.39255-.3925521-.39255z"/><path d="m3.8038424 293.41541v.79499l.4242641-.42426v-.79499z"/><path d="m3.8038424 294.2104c0 .10873-.04377.20687-.1147233.27783l.4242641-.42427c.070954-.0709.1147233-.16909.1147233-.27782z"/><path d="m3.6891191 294.48823c-.070954.071-.1690918.11472-.2778288.11472l.4242641-.42426c.108737 0 .206875-.0438.2778288-.11473z"/><path d="m3.4112903 294.60295h-.8854749l.4242641-.42426h.8854749z"/><path d="m2.5258154 294.60295c-.2174739 0-.3925521-.17508-.3925521-.39255l.4242641-.42426c0 .21747.1750782.39255.3925521.39255z"/><path d="m2.1332633 294.2104v-.79499l.4242641-.42426v.79499z"/><path d="m2.1332633 293.41541c0-.10873.04377-.20687.1147233-.27783l.424264-.42426c-.070954.0709-.1147232.16909-.1147232.27783z"/><path d="m2.2479866 293.13758c.070954-.071.1690918-.11472.2778288-.11472l.4242641-.42426c-.108737 0-.2068751.0438-.2778289.11472z"/></g><path d="m2.5258154 293.02286h.8854749c.2174739 0 .3925521.17508.3925521.39255v.79499c0 .21747-.1750782.39255-.3925521.39255h-.8854749c-.2174739 0-.3925521-.17508-.3925521-.39255v-.79499c0-.21747.1750782-.39255.3925521-.39255z" fill="#ffbe7e"/></g><g fill="#acac56" transform="translate(2.904455 -285.86699)"><g style="stroke-width:.238125;stroke-linecap:square;stroke-linejoin:bevel;stroke-dasharray:.47625 .9525;stroke-dashoffset:9;fill:#acac56"><path d="m2.5258154 293.02286h.8854749l.4242641-.42426h-.8854749z"/><path d="m3.4112903 293.02286c.2174739 0 .3925521.17508.3925521.39255l.4242641-.42426c0-.21747-.1750782-.39255-.3925521-.39255z"/><path d="m3.8038424 293.41541v.79499l.4242641-.42426v-.79499z"/><path d="m3.8038424 294.2104c0 .10873-.04377.20687-.1147233.27783l.4242641-.42427c.070954-.0709.1147233-.16909.1147233-.27782z"/><path d="m3.6891191 294.48823c-.070954.071-.1690918.11472-.2778288.11472l.4242641-.42426c.108737 0 .206875-.0438.2778288-.11473z"/><path d="m3.4112903 294.60295h-.8854749l.4242641-.42426h.8854749z"/><path d="m2.5258154 294.60295c-.2174739 0-.3925521-.17508-.3925521-.39255l.4242641-.42426c0 .21747.1750782.39255.3925521.39255z"/><path d="m2.1332633 294.2104v-.79499l.4242641-.42426v.79499z"/><path d="m2.1332633 293.41541c0-.10873.04377-.20687.1147233-.27783l.424264-.42426c-.070954.0709-.1147232.16909-.1147232.27783z"/><path d="m2.2479866 293.13758c.070954-.071.1690918-.11472.2778288-.11472l.4242641-.42426c-.108737 0-.2068751.0438-.2778289.11472z"/></g><path d="m2.5258154 293.02286h.8854749c.2174739 0 .3925521.17508.3925521.39255v.79499c0 .21747-.1750782.39255-.3925521.39255h-.8854749c-.2174739 0-.3925521-.17508-.3925521-.39255v-.79499c0-.21747.1750782-.39255.3925521-.39255z" fill="#fbfb7e"/></g></svg>