<?xml version="1.0" encoding="UTF-8" standalone="no"?>
<!-- Generator: Adobe Illustrator 20.1.0, SVG Export Plug-In . SVG Version: 6.00 Build 0)  -->

<svg
   xmlns:dc="http://purl.org/dc/elements/1.1/"
   xmlns:cc="http://creativecommons.org/ns#"
   xmlns:rdf="http://www.w3.org/1999/02/22-rdf-syntax-ns#"
   xmlns:svg="http://www.w3.org/2000/svg"
   xmlns="http://www.w3.org/2000/svg"
   xmlns:sodipodi="http://sodipodi.sourceforge.net/DTD/sodipodi-0.dtd"
   xmlns:inkscape="http://www.inkscape.org/namespaces/inkscape"
   version="1.1"
   x="0px"
   y="0px"
   viewBox="0 0 36 36"
   xml:space="preserve"
   id="svg26"
   sodipodi:docname="map_icon.svg"
   width="36"
   height="36"
   inkscape:version="0.92.4 5da689c313, 2019-01-14"><metadata
   id="metadata32"><rdf:RDF><cc:Work
       rdf:about=""><dc:format>image/svg+xml</dc:format><dc:type
         rdf:resource="http://purl.org/dc/dcmitype/StillImage" /><dc:title /></cc:Work></rdf:RDF></metadata><defs
   id="defs30">
	
</defs><sodipodi:namedview
   pagecolor="#ffffff"
   bordercolor="#666666"
   borderopacity="1"
   objecttolerance="10"
   gridtolerance="10"
   guidetolerance="10"
   inkscape:pageopacity="0"
   inkscape:pageshadow="2"
   inkscape:window-width="1920"
   inkscape:window-height="1025"
   id="namedview28"
   showgrid="false"
   fit-margin-top="0"
   fit-margin-left="0"
   fit-margin-right="0"
   fit-margin-bottom="0"
   inkscape:zoom="13.906433"
   inkscape:cx="11.853395"
   inkscape:cy="24.13671"
   inkscape:window-x="2560"
   inkscape:window-y="551"
   inkscape:window-maximized="1"
   inkscape:current-layer="svg26"
   inkscape:pagecheckerboard="true" />

<path
   style="fill:#c5e1a5"
   d="m 18.515,17.917 c 0.414,-0.22 5.777,-2.343 5.777,-2.343 0,0 1.798,2.343 1.907,3.924 0.109,1.58 -1.744,5.341 -1.744,5.341 0,0 -6.485,-4.196 -7.139,-4.85 -0.654,-0.655 -0.545,-1.145 1.199,-2.072 z"
   id="path4"
   inkscape:connector-curvature="0" />
<path
   inkscape:connector-curvature="0"
   id="path6"
   d="m 0,14.752 c 10.225,2.876 34.558,20.209 36,21.053 V 30.649 C 24.527,23.463 17.924,20.24 17.866,19.26 17.775,17.719 34.612,14.19 36,12.589 V 8.248 C 34.951,8.671 21.501,14.059 16.615,13.814 12.707,13.618 1.182,9.496 0,9.07 Z"
   style="fill:#64b5f6" />
<path
   style="fill:#c5e1a5"
   d="m 0,16.952 c 0,0 8.186,3.543 11.764,5.849 7.117,4.587 18.085,12.444 18.8,13.199 h -7.546 c 0,0 -8.242,-8.198 -9.904,-8.787 C 11.452,26.623 9.404,25.539 8.225,24.788 7.046,24.038 5.742,22.647 4.846,22.165 3.814,21.608 0,20.271 0,20.271 Z"
   id="path10"
   inkscape:connector-curvature="0" />
<g
   id="g20"
   transform="translate(-6,-6)">
	<path
   style="fill:#ffffff"
   d="M 22.971,36.516 C 22.064,36.002 21.282,35.559 20.615,35.215 20.044,34.921 19.279,34.547 18.463,34.148 16.578,33.226 14.233,32.079 13.758,31.641 13.097,31.027 9.365,34.131 6,37.184 v 0.676 c 3.325,-3.019 6.893,-5.907 7.419,-5.852 0.528,0.488 2.712,1.556 4.824,2.589 0.812,0.397 1.574,0.77 2.142,1.062 0.658,0.339 1.438,0.781 2.339,1.292 0.956,0.542 2.049,1.158 3.248,1.796 -0.686,0.77 -1.855,2.055 -2.947,3.253 h 0.677 c 1.046,-1.147 2.114,-2.324 2.728,-3.015 1.965,1.03 4.214,2.101 6.682,3.015 h 1.539 c -4.764,-1.586 -8.812,-3.859 -11.68,-5.484 z"
   id="path12"
   inkscape:connector-curvature="0" />
	<path
   style="fill:#ffffff"
   d="m 9.289,11.301 8.741,-4.907 3.443,3.898 -2.481,0.975 0.183,0.465 12.29,-4.832 1.396,2.715 c 0.043,0.085 0.13,0.136 0.222,0.136 0.02,0 0.041,-0.002 0.061,-0.007 l 6.01,-1.503 0.52,1.99 0.483,-0.127 L 39.085,6 H 38.568 L 39.027,7.756 33.215,9.21 31.932,6.716 33.753,6 H 32.388 L 21.968,10.097 18.476,6.143 18.732,6 h -1.049 l 0.009,0.011 -8.648,4.855 z"
   id="path14"
   inkscape:connector-curvature="0" />
	<path
   style="fill:#ffffff"
   d="m 14.064,12.738 -0.462,0.19 c 0.282,0.685 1.244,2.94 1.786,3.211 0.517,0.258 3.761,0.343 4.488,0.359 0.361,0.864 0.779,1.625 1.226,1.952 0.386,0.283 1.021,0.385 1.736,0.385 1.715,0 3.895,-0.586 4.229,-0.679 0.004,-10e-4 0.006,-0.006 0.009,-0.007 l 0.001,0.004 8.917,-2.917 c 0.113,-0.037 0.185,-0.149 0.17,-0.268 l -0.333,-2.75 -0.496,0.061 0.308,2.546 -8.438,2.76 -0.708,-5.037 -0.495,0.069 0.242,1.722 -6.558,0.131 c -0.238,-0.775 -0.424,-1.493 -0.527,-1.943 l -0.487,0.111 c 0.027,0.117 0.417,1.802 1.003,3.354 -1.832,-0.046 -3.794,-0.166 -4.064,-0.301 -0.26,-0.136 -1.006,-1.64 -1.547,-2.953 z m 12.251,2.101 0.407,2.893 c -1.358,0.354 -4.43,0.973 -5.324,0.316 -0.558,-0.409 -1.121,-1.762 -1.553,-3.08 z"
   id="path16"
   inkscape:connector-curvature="0" />
	<path
   style="fill:#ffffff"
   d="m 42,31.996 -8.881,-4.19 c 0.118,-0.373 0.34,-1.163 0.416,-1.868 h 2.625 c 0.188,0.348 0.756,1.199 1.878,1.311 0.637,0.064 2.787,0.291 3.962,0.416 v -0.503 c -1.187,-0.126 -3.285,-0.348 -3.913,-0.411 -0.892,-0.089 -1.346,-0.786 -1.49,-1.053 0.227,-0.363 0.764,-1.034 1.356,-1.074 0.602,-0.04 2.622,-0.351 4.046,-0.577 V 23.54 c -1.42,0.226 -3.491,0.545 -4.079,0.584 -0.878,0.059 -1.532,0.967 -1.75,1.312 H 33.546 C 33.515,24.638 33.188,23.82 32.986,23.404 L 42,20.788 v -0.521 l -9.445,2.743 c -0.073,0.021 -0.133,0.076 -0.162,0.146 -0.028,0.071 -0.023,0.151 0.015,0.218 0.007,0.013 0.713,1.26 0.655,2.3 -0.051,0.908 -0.482,2.169 -0.487,2.182 -0.042,0.121 0.014,0.253 0.13,0.308 L 42,32.548 Z"
   id="path18"
   inkscape:connector-curvature="0" />
</g>
<path
   style="fill:#ffb74d"
   d="M 35.9,28.259 25.499,22.406 c -0.676,-0.38 -1.065,-1.121 -0.993,-1.893 0.132,-1.422 0.315,-3.591 0.253,-4.053 C 24.651,15.652 23.923,11.217 23.851,10.459 23.716,9.03 24.843,8.274 25.803,7.96 26.764,7.645 36,5.341 36,5.341 V 3 L 24.375,5.957 c 0,0 -5.884,-0.535 -9.768,-0.871 C 11.356,4.805 8.948,5.374 6.673,5.154 4.729,4.967 0,3 0,3 v 2 c 0.715,0.52 4.184,1.818 6.406,2.1 2.222,0.282 6.612,-0.223 8.104,-0.096 1.816,0.155 7.861,0.916 7.861,0.916 0,0 -0.79,0.824 -0.471,2.439 0.382,1.611 1.044,5.874 1.16,6.571 0.071,0.425 -0.161,2.427 -0.311,3.621 -0.072,0.577 -0.379,1.094 -0.849,1.437 L 2.706,36 H 5.965 L 22.906,23.914 c 0.241,-0.172 0.56,-0.189 0.819,-0.045 L 36,30.751 Z"
   id="path22"
   inkscape:connector-curvature="0" />
<path
   style="fill:#ffe082"
   d="m 24.505,20.513 c 0.067,-0.721 0.147,-1.633 0.201,-2.418 l -1.678,-0.093 c -0.065,0.789 -0.187,1.82 -0.278,2.55 -0.007,0.058 -0.027,0.113 -0.039,0.17 l 1.804,-0.025 c 0,-0.063 -0.016,-0.122 -0.01,-0.184 z"
   id="path24"
   inkscape:connector-curvature="0" />
</svg>