<?xml version="1.0" encoding="UTF-8" standalone="no"?>
<svg
   xmlns:dc="http://purl.org/dc/elements/1.1/"
   xmlns:cc="http://creativecommons.org/ns#"
   xmlns:rdf="http://www.w3.org/1999/02/22-rdf-syntax-ns#"
   xmlns:svg="http://www.w3.org/2000/svg"
   xmlns="http://www.w3.org/2000/svg"
   xmlns:sodipodi="http://sodipodi.sourceforge.net/DTD/sodipodi-0.dtd"
   xmlns:inkscape="http://www.inkscape.org/namespaces/inkscape"
   width="32"
   height="32"
   viewBox="0 0 8.4666659 8.4666659"
   version="1.1"
   id="svg8"
   inkscape:version="1.0.1 (3bc2e813f5, 2020-09-07)"
   sodipodi:docname="settings.svg">
  <defs
     id="defs2" />
  <sodipodi:namedview
     id="base"
     pagecolor="#ffffff"
     bordercolor="#666666"
     borderopacity="1.0"
     inkscape:pageopacity="0.0"
     inkscape:pageshadow="2"
     inkscape:zoom="15.839192"
     inkscape:cx="13.367929"
     inkscape:cy="24.845015"
     inkscape:document-units="px"
     inkscape:current-layer="layer1"
     showgrid="false"
     units="px"
     width="32mm"
     inkscape:showpageshadow="true"
     inkscape:window-width="1920"
     inkscape:window-height="1028"
     inkscape:window-x="2560"
     inkscape:window-y="548"
     inkscape:window-maximized="1"
     showguides="true"
     inkscape:guide-bbox="true"
     inkscape:document-rotation="0">
    <sodipodi:guide
       position="6.3476507,6.7903158"
       orientation="1,0"
       id="guide1368"
       inkscape:locked="false" />
    <sodipodi:guide
       position="2.1214517,7.7174069"
       orientation="1,0"
       id="guide1370"
       inkscape:locked="false" />
    <sodipodi:guide
       position="0.091873892,6.3560029"
       orientation="0,1"
       id="guide1372"
       inkscape:locked="false" />
    <sodipodi:guide
       position="0.08352172,2.1214517"
       orientation="0,1"
       id="guide1374"
       inkscape:locked="false" />
    <sodipodi:guide
       position="4.2345141,3.1419268"
       orientation="1,0"
       id="guide1376"
       inkscape:locked="false" />
    <sodipodi:guide
       position="9.9012184,4.2505819"
       orientation="0,1"
       id="guide1378"
       inkscape:locked="false" />
    <sodipodi:guide
       position="7.4000644,3.519903"
       orientation="1,0"
       id="guide1380"
       inkscape:locked="false" />
    <sodipodi:guide
       position="1.0394344,4.5239021"
       orientation="1,0"
       id="guide1382"
       inkscape:locked="false" />
    <sodipodi:guide
       position="-0.51783466,1.069078"
       orientation="0,1"
       id="guide1384"
       inkscape:locked="false" />
    <sodipodi:guide
       position="-0.10022606,7.4083765"
       orientation="0,1"
       id="guide1386"
       inkscape:locked="false" />
    <sodipodi:guide
       position="0,6.9531832"
       orientation="1,0"
       id="guide2050"
       inkscape:locked="false" />
    <sodipodi:guide
       position="8.4690283,4.9018783"
       orientation="1,0"
       id="guide2052"
       inkscape:locked="false" />
    <sodipodi:guide
       position="8.3095696,8.4690283"
       orientation="0,1"
       id="guide2054"
       inkscape:locked="false" />
    <sodipodi:guide
       position="7.9315934,-0.0059058774"
       orientation="0,1"
       id="guide2056"
       inkscape:locked="false" />
  </sodipodi:namedview>
  <metadata
     id="metadata5">
    <rdf:RDF>
      <cc:Work
         rdf:about="">
        <dc:format>image/svg+xml</dc:format>
        <dc:type
           rdf:resource="http://purl.org/dc/dcmitype/StillImage" />
        <dc:title />
      </cc:Work>
    </rdf:RDF>
  </metadata>
  <g
     inkscape:label="Layer 1"
     inkscape:groupmode="layer"
     id="layer1"
     transform="translate(0,-288.53334)">
    <g
       id="g2535"
       transform="matrix(0.0526911,0,0,0.0526911,0.98804441,289.49102)"
       style="fill:#ffffff;fill-opacity:1;stroke:#ffffff;stroke-opacity:1">
      <path
         style="opacity:0.1;fill:#ffffff;fill-opacity:1;stroke:#ffffff;stroke-opacity:1"
         id="path6"
         d="m 116.2906,48.495591 h -4.62975 c -1.24954,0 -2.69435,-1.03984 -3.09162,-2.223969 -0.0221,-0.06156 -2.87327,-6.96337 -2.87327,-6.96337 -0.58677,-1.180282 -0.30301,-2.93387 0.58004,-3.817878 l 3.27343,-3.273429 c 0.75222,-0.753187 1.16778,-1.757436 1.16778,-2.828058 0,-1.070622 -0.41556,-2.074871 -1.16778,-2.827096 L 96.660604,13.672966 c -0.752225,-0.752224 -1.756474,-1.166814 -2.827096,-1.167776 -1.070622,0 -2.074871,0.41459 -2.827096,1.167776 l -3.273428,3.273429 c -0.883047,0.882085 -2.637597,1.166814 -3.754391,0.608898 -0.06253,-0.02886 -6.964333,-2.879039 -6.964333,-2.879039 -1.246654,-0.420361 -2.286494,-1.865172 -2.286494,-3.114712 V 6.9308383 C 74.72488,4.7251456 72.930891,2.9311567 70.72616,2.9311567 H 52.499617 c -2.205693,0 -3.999682,1.7939889 -3.999682,3.9996816 v 4.6307037 c 0,1.24954 -1.03984,2.694351 -2.223969,3.091625 -0.06156,0.02309 -6.963371,2.873269 -6.963371,2.873269 -1.180281,0.586773 -2.934831,0.302044 -3.817878,-0.581003 L 32.221289,13.672966 C 31.468102,12.91978 30.463853,12.50519 29.393231,12.50519 c -1.070622,0 -2.074871,0.415552 -2.827096,1.167776 L 13.676348,26.561791 c -1.559279,1.55928 -1.559279,4.095874 0,5.655154 l 3.273429,3.273429 c 0.882085,0.883046 1.166814,2.637596 0.608898,3.754391 -0.02886,0.06253 -2.880001,6.964332 -2.880001,6.964332 -0.420361,1.246654 -1.86421,2.285533 -3.11375,2.285533 H 8.1347018 c -2.2047307,9.61e-4 -5.1992013,1.79495 -5.1992013,4.000643 v 18.225582 c 0,2.205692 1.793989,3.999681 3.9996816,3.999681 h 4.6307039 c 1.24954,0 2.69435,1.038879 3.090663,2.223969 0.02309,0.06156 2.87423,6.963371 2.87423,6.963371 0.586774,1.180281 0.302045,2.93387 -0.58004,3.817878 l -3.273429,3.273429 c -1.559279,1.559279 -1.559279,4.095874 0,5.655153 l 12.889787,12.888824 c 0.752225,0.75223 1.756474,1.16778 2.827096,1.16778 1.071584,0 2.075833,-0.41555 2.828058,-1.16778 l 3.273428,-3.27343 c 0.883047,-0.88208 2.637597,-1.16681 3.754391,-0.6089 0.06253,0.0289 6.964333,2.88001 6.964333,2.88001 1.245692,0.42036 2.285532,1.86421 2.285532,3.11375 v 4.62974 c 0,2.20569 1.793989,3.99968 3.999682,3.99968 h 18.225581 c 2.204731,0 3.99872,-1.79399 3.99872,-3.99968 v -4.62974 c 0,-1.24954 1.03984,-2.69435 2.224931,-3.09163 0.06156,-0.0221 6.963371,-2.87327 6.963371,-2.87327 1.180281,-0.58677 2.935793,-0.303 3.817878,0.58004 l 3.273429,3.27343 c 0.752225,0.75223 1.756474,1.16778 2.827095,1.16778 1.070622,0 2.074871,-0.41555 2.827096,-1.16778 L 109.54654,96.654336 c 0.75223,-0.752225 1.16778,-1.756474 1.16778,-2.827095 0,-1.070622 -0.41555,-2.074871 -1.16778,-2.827096 l -3.27343,-3.273429 c -0.88304,-0.883047 -1.16681,-2.637597 -0.60889,-3.754391 0.0289,-0.06252 2.88,-6.964333 2.88,-6.964333 0.42036,-1.245692 1.86421,-2.285532 3.11375,-2.285532 h 4.62974 c 2.20569,0 3.99968,-1.793989 3.99968,-3.999682 V 52.495273 c 0.003,-2.205693 -1.7911,-3.999682 -3.99679,-3.999682 z M 61.612889,78.625949 c -9.383573,0 -17.018367,-7.633832 -17.018367,-17.017404 0,-9.383573 7.634794,-17.018367 17.018367,-17.018367 9.384534,0 17.017404,7.634794 17.017404,17.018367 0,9.384534 -7.63287,17.017404 -17.017404,17.017404 z" />
      <path
         style="opacity:1;fill:#ffffff;fill-opacity:1;stroke:#ffffff;stroke-width:3.33467;stroke-linecap:round;stroke-linejoin:round;stroke-miterlimit:4;stroke-dasharray:none;stroke-opacity:1"
         id="path8"
         d="m 116.2906,48.473467 h -4.62975 c -1.24954,0 -2.69435,-1.041764 -3.09162,-2.227817 -0.0221,-0.06156 -2.87327,-6.973952 -2.87327,-6.973952 -0.58677,-1.182205 -0.30301,-2.938679 0.58004,-3.823649 l 3.27343,-3.2792 c 0.75222,-0.754149 1.16778,-1.760322 1.16778,-2.832868 0,-1.071583 -0.41556,-2.077756 -1.16778,-2.831905 L 96.660604,13.594089 c -0.752225,-0.754149 -1.756474,-1.1697 -2.827096,-1.1697 -1.070622,0 -2.074871,0.415551 -2.827096,1.1697 l -3.273428,3.278238 c -0.883047,0.884008 -2.637597,1.168738 -3.754391,0.60986 -0.06253,-0.02886 -6.964333,-2.883849 -6.964333,-2.883849 -1.246654,-0.421323 -2.286494,-1.868058 -2.286494,-3.119521 V 6.8404174 C 74.72488,4.6308771 72.930891,2.8340023 70.72616,2.8340023 H 52.499617 c -2.205693,0 -3.999682,1.7968748 -3.999682,4.0064151 v 4.6383996 c 0,1.251463 -1.03984,2.69916 -2.223969,3.096434 -0.06156,0.02309 -6.963371,2.878078 -6.963371,2.878078 -1.180281,0.587736 -2.934831,0.303006 -3.817878,-0.581002 l -3.273428,-3.278238 c -0.753187,-0.754149 -1.757436,-1.1697 -2.828058,-1.1697 -1.070622,0 -2.074871,0.416513 -2.827096,1.1697 L 13.676348,26.504076 c -1.559279,1.562165 -1.559279,4.103569 0,5.664773 l 3.273429,3.2792 c 0.882085,0.884008 1.166814,2.641444 0.608898,3.761124 -0.02886,0.06253 -2.880001,6.975876 -2.880001,6.975876 -0.420361,1.248578 -1.86421,2.28938 -3.11375,2.28938 H 8.1347018 c -2.2047307,-9.62e-4 -5.1992013,1.795913 -5.1992013,4.005453 v 18.256363 c 0,2.208579 1.793989,4.005454 3.9996816,4.005454 h 4.6307039 c 1.24954,0 2.69435,1.040802 3.090663,2.227817 0.02309,0.06156 2.87423,6.973951 2.87423,6.973951 0.586774,1.182205 0.302045,2.939641 -0.58004,3.824612 l -3.273429,3.2792 c -1.559279,1.561203 -1.559279,4.10357 0,5.664773 l 12.889787,12.909988 c 0.752225,0.75415 1.756474,1.1697 2.827096,1.1697 1.071584,0 2.075833,-0.41555 2.828058,-1.1697 l 3.273428,-3.27824 c 0.883047,-0.88401 2.637597,-1.1697 3.754391,-0.60986 0.06253,0.0279 6.964333,2.88385 6.964333,2.88385 1.245692,0.42132 2.285532,1.8671 2.285532,3.11952 v 4.63744 c 0,2.20954 1.793989,4.00641 3.999682,4.00641 h 18.225581 c 2.204731,0 3.99872,-1.79687 3.99872,-4.00641 v -4.63744 c 0,-1.25242 1.03984,-2.69916 2.224931,-3.0974 0.06156,-0.0221 6.963371,-2.87807 6.963371,-2.87807 1.180281,-0.58774 2.935793,-0.30205 3.817878,0.581 l 3.273429,3.27824 c 0.752225,0.75415 1.756474,1.1697 2.827095,1.1697 1.070622,0 2.074871,-0.41555 2.827096,-1.1697 L 109.54654,96.71109 c 0.75223,-0.753187 1.16778,-1.75936 1.16778,-2.831906 0,-1.072545 -0.41555,-2.078718 -1.16778,-2.831905 l -3.27343,-3.2792 c -0.88304,-0.884009 -1.16681,-2.642407 -0.60889,-3.760163 0.0289,-0.06349 2.88,-6.975875 2.88,-6.975875 0.42036,-1.24954 1.86421,-2.290342 3.11375,-2.290342 h 4.62974 c 2.20569,0 3.99968,-1.796875 3.99968,-4.005454 V 52.479882 c 0.003,-2.20954 -1.7911,-4.006415 -3.99679,-4.006415 z M 61.612889,79.971682 c -10.180046,0 -18.461253,-8.281208 -18.461253,-18.460292 0,-10.180045 8.281207,-18.461253 18.461253,-18.461253 10.179084,0 18.460291,8.281208 18.460291,18.461253 0,10.179084 -8.281207,18.460292 -18.460291,18.460292 z" />
      <path
         style="fill:#ffffff;fill-opacity:1;stroke:#ffffff;stroke-opacity:1"
         id="path15"
         d="m 116.19825,49.572947 h -4.62397 c -1.70934,0 -3.54373,-1.31976 -4.08818,-2.941565 l -2.84248,-6.883531 c -0.76281,-1.523688 -0.40209,-3.751505 0.80801,-4.961606 l 3.2667,-3.267657 c 0.55214,-0.552145 0.85707,-1.288979 0.85707,-2.076795 0,-0.786854 -0.30397,-1.523688 -0.85707,-2.075833 L 95.851627,14.499259 c -0.55022,-0.552144 -1.288978,-0.856112 -2.074871,-0.856112 -0.786854,0 -1.52465,0.303968 -2.076794,0.856112 l -3.266696,3.267658 c -1.210101,1.209139 -3.437917,1.570822 -4.968339,0.80513 L 76.582358,15.728599 C 74.966325,15.187035 73.645603,13.353607 73.645603,11.643306 V 7.0202973 c 0,-1.6189188 -1.316875,-2.9357933 -2.935794,-2.9357933 H 52.513086 c -1.619881,0 -2.936756,1.3168745 -2.936756,2.9357933 v 4.6230087 c 0,1.710301 -1.31976,3.543729 -2.941564,4.088179 0,0 -6.883531,2.843448 -6.883531,2.843448 -1.523689,0.761844 -3.752467,0.401123 -4.961606,-0.808016 l -3.267658,-3.267658 c -0.552144,-0.552144 -1.288978,-0.856112 -2.076794,-0.856112 -0.786855,0 -1.523689,0.303968 -2.075833,0.856112 L 14.501681,27.366922 c -1.14469,1.14469 -1.14469,3.006976 0,4.151666 l 3.267657,3.267657 c 1.209139,1.209139 1.570823,3.437918 0.805131,4.968339 0,0 -2.843449,6.883531 -2.843449,6.883531 -0.541563,1.616033 -2.374029,2.934832 -4.085292,2.934832 H 8.2241625 c -1.5958326,0 -4.1362749,1.343808 -4.1362749,2.936755 v 18.195762 c 0,1.619881 1.3168745,2.936755 2.9357932,2.936755 h 4.6230082 c 1.710302,0 3.54373,1.31976 4.087217,2.942527 l 2.844411,6.883531 c 0.761844,1.523688 0.401122,3.751505 -0.808017,4.961606 l -3.267657,3.266695 c -1.14469,1.14469 -1.14469,3.007938 0,4.151666 l 12.867663,12.867666 c 0.551182,0.55214 1.288978,0.85707 2.075833,0.85707 0.786854,0 1.52465,-0.30397 2.076794,-0.85707 l 3.267657,-3.2667 c 1.209139,-1.2101 3.437918,-1.57082 4.96834,-0.80609 0,0 6.883531,2.84249 6.883531,2.84249 1.616033,0.54156 2.934831,2.37595 2.934831,4.08625 v 4.62205 c 0,1.61988 1.316875,2.93675 2.936755,2.93675 h 18.195762 c 1.618919,0 2.935794,-1.31687 2.935794,-2.93675 v -4.62205 c 0,-1.7103 1.320722,-3.54565 2.942526,-4.08818 0,-9.6e-4 6.883531,-2.84345 6.883531,-2.84345 1.523689,-0.76184 3.751505,-0.40112 4.961606,0.80898 l 3.266696,3.2667 c 0.552144,0.55214 1.28994,0.85707 2.076794,0.85707 0.785893,0 1.524651,-0.30397 2.074871,-0.85707 L 108.71929,95.848244 c 0.55214,-0.551183 0.85707,-1.288979 0.85707,-2.075833 0,-0.786854 -0.30396,-1.523688 -0.85707,-2.075833 l -3.2667,-3.266695 c -1.2101,-1.210101 -1.57082,-3.43888 -0.80609,-4.969302 l 2.84345,-6.882569 c 0.54156,-1.616033 2.37595,-2.935793 4.08529,-2.935793 h 4.62397 c 1.61892,0 2.9358,-1.316874 2.9358,-2.936755 V 52.509702 c -9.6e-4,-1.618919 -1.31784,-2.936755 -2.93676,-2.936755 z M 61.610966,91.427239 c -16.389267,0 -29.723463,-13.334196 -29.723463,-29.723464 0,-16.389268 13.334196,-29.723464 29.723463,-29.723464 16.389268,0 29.723464,13.334196 29.723464,29.723464 0,16.389268 -13.334196,29.723464 -29.723464,29.723464 z" />
    </g>
  </g>
</svg>
