<svg height="32" viewBox="0 0 8.4666659 8.4666659" width="32" xmlns="http://www.w3.org/2000/svg"><g transform="translate(0 -288.53334)"><path d="m7.928098 292.82135a3.6385829 3.6385829 0 0 1 -3.638583 3.63858 3.6385829 3.6385829 0 0 1 -3.63858293-3.63858 3.6385829 3.6385829 0 0 1 3.63858293-3.63858 3.6385829 3.6385829 0 0 1 3.638583 3.63858z" fill="#ea1d25"/><path d="m7.4205944 294.67467v-2.57555h-.823205v1.31206c0 .44511-.0205.72508-.0615.84026-.041.11323-.117133.20871-.22841.28681-.1112766.0761-.237195.1142-.3777549.1142-.1229897 0-.224333-.0282-.3043739-.0848-.080041-.0586-.1356797-.13648-.1669151-.23409-.029283-.0996-.043925-.36834-.043925-.80564v-1.42885h-.8226835v1.96784c0 .29283.03692.52239.1111043.68833.074184.16594.194246.29478.3601847.38654.1659387.0917.3533518.13746.5622396.13746.204983 0 .3994014-.048.5829101-.14366.1854607-.0957.3348057-.22629.4480347-.39223v.46561h.378788a3.638583 3.638583 0 0 0 .385506-.53434z" fill="#fff"/><circle cx="3.546941" cy="291.47855" fill="#fff" r=".621426"/><text/></g></svg>